<?xml version="1.0" encoding="utf-8"?><svg xmlns="http://www.w3.org/2000/svg" xmlns:xlink="http://www.w3.org/1999/xlink"><symbol viewBox="0 0 22 24" id="basket" xmlns="http://www.w3.org/2000/svg"><g clip-path="url(#aclip0)"><path d="M10.363 18.443a2.046 2.046 0 00-2.045 2.042 2.046 2.046 0 004.09 0 2.046 2.046 0 00-2.045-2.042zm6.134 0a2.046 2.046 0 00-2.045 2.042 2.046 2.046 0 004.089 0 2.046 2.046 0 00-2.044-2.042zm3.978-8.199L7.413 6.891a.614.614 0 00-.75.73L8.67 16.4h-.786L5.482 5.895a.613.613 0 00-.474-.464l-4.27-.882A.614.614 0 00.489 5.75l3.885.802L6.797 17.15a.613.613 0 00.598.477h12.07a.615.615 0 00.607-.53l.858-6.175a.613.613 0 00-.455-.678zm-8.14 3.91a.613.613 0 01-1.227 0v-2.696a.613.613 0 011.227 0v2.696zm2.625 0a.613.613 0 01-1.227 0v-1.88a.613.613 0 011.227 0v1.88zm2.625 0a.613.613 0 01-1.227 0v-1.226a.613.613 0 011.227 0v1.226z"/></g><path fill-rule="evenodd" clip-rule="evenodd" d="M16.268 4.568a2.996 2.996 0 00-1.693-.523c-.627 0-1.21.193-1.693.523-.28-.843-.492-1.752-.492-2.383C12.39.98 13.37 0 14.575 0s2.185.98 2.185 2.185c0 .631-.212 1.54-.492 2.383zm-4.722 2.274l.024.006v-.011l-.024.005zm4.972 1.217c-1.333-.33-2.766-.681-4.129-1.013a2.185 2.185 0 114.129 1.013zm4.436 1.103c-.866-.217-2.155-.538-3.618-.9a2.995 2.995 0 00.243-1.425c.87.18 1.762.45 2.308.765.596.344.969.928 1.067 1.56zM9.869 6.439c-.36-.086-.706-.167-1.03-.243a2.19 2.19 0 01-.376-2.667 2.188 2.188 0 013.147-.7c.098.738.338 1.599.61 2.353a3.01 3.01 0 00-.449.774c-.628.113-1.305.278-1.902.483zm10.124.075a3.43 3.43 0 01-.217.114c-.696-.295-1.587-.526-2.397-.672a3.01 3.01 0 00-.449-.774c.262-.727.494-1.553.599-2.273.095-.067.189-.128.278-.18a2.188 2.188 0 012.986.8 2.188 2.188 0 01-.8 2.985z"/><defs><clipPath id="aclip0"><path transform="translate(0 3.064)" d="M0 0h20.936v20.936H0z"/></clipPath></defs></symbol><symbol viewBox="0 0 70 70" id="box" xmlns="http://www.w3.org/2000/svg"><g clip-path="url(#bclip0)"><path d="M67.23 15.445L35.445.102a1.026 1.026 0 00-.891 0L2.772 15.445c-.354.171-.58.53-.58.924V53.63c0 .394.226.752.58.924l31.783 15.343a1.025 1.025 0 00.891 0L67.23 54.555c.355-.172.58-.53.58-.924V16.37c0-.394-.226-.753-.58-.924zM35 2.164l29.425 14.205-8.53 4.117a1.013 1.013 0 00-.173-.11L26.497 6.27l8.504-4.105zM24.181 7.428l29.382 14.184-6.018 2.905L18.176 10.34l6.006-2.91zm30.07 16.13v10.738L48.63 37.01V26.27l5.62-2.713zm11.507 29.43L36.026 67.34V32.356l7.092-3.424a1.025 1.025 0 10-.892-1.847l-7.225 3.488-2.844-1.372a1.025 1.025 0 10-.891 1.846l2.71 1.308v34.986L4.242 52.988V18.002l22.64 10.93a1.026 1.026 0 10.892-1.847L5.576 16.37l10.186-4.918 30.803 14.87.014.018v12.305a1.026 1.026 0 001.47.923l7.673-3.703c.354-.172.58-.53.58-.924V22.568l9.456-4.566v34.986z"/><path d="M12.704 49.01L8.04 46.76a1.025 1.025 0 10-.892 1.846l4.664 2.252a1.026 1.026 0 00.892-1.847zm4.293-2.793l-8.95-4.321a1.025 1.025 0 10-.891 1.847l8.95 4.32a1.023 1.023 0 001.369-.477 1.025 1.025 0 00-.478-1.37z"/></g><defs><clipPath id="bclip0"><path d="M0 0h70v70H0z"/></clipPath></defs></symbol><symbol viewBox="0 0 70 70" id="car-engine" xmlns="http://www.w3.org/2000/svg"><g clip-path="url(#cclip0)"><path d="M68.507 18.794L56.251 6.538a5.031 5.031 0 00-6.582-.495l-6.621 4.882a1.025 1.025 0 00-.117 1.55l1.596 1.595-7.01 7.01H32.48l-7.01-7.01 1.596-1.596a1.025 1.025 0 00-.116-1.55l-6.62-4.88a5.03 5.03 0 00-6.583.494l-1.94 1.941a1.025 1.025 0 001.449 1.45l1.94-1.941a2.992 2.992 0 013.916-.295l2.203 1.624L4.27 26.363 2.646 24.16a2.996 2.996 0 01.294-3.917l7.417-7.416a1.025 1.025 0 00-1.45-1.45L1.49 18.793a5.034 5.034 0 00-.495 6.584l4.883 6.62a1.025 1.025 0 001.55.117l1.595-1.596 1.19 1.19a11.45 11.45 0 00-3.986 8.674c0 5.496 3.923 10.19 9.245 11.23a8.77 8.77 0 005.645 6.606V61.9a3.057 3.057 0 003.052 3.054 3.059 3.059 0 002.877-2.029h1.467a3.058 3.058 0 002.875 2.029 3.059 3.059 0 002.877-2.029h1.468a3.058 3.058 0 002.876 2.029 3.058 3.058 0 002.875-2.029h1.469a3.058 3.058 0 002.875 2.029 3.057 3.057 0 003.053-3.054v-8.059a7.439 7.439 0 004.165-2.037 11.387 11.387 0 005.72-1.965 1.025 1.025 0 00-1.157-1.693 9.345 9.345 0 01-2.936 1.332c.329-.739.541-1.54.613-2.381a7.322 7.322 0 004.38-6.715 7.32 7.32 0 00-2.794-5.761l1.458-1.458a9.397 9.397 0 013.39 7.219 9.34 9.34 0 01-1.533 5.137 1.025 1.025 0 001.714 1.125 11.38 11.38 0 001.87-6.262c0-3.348-1.472-6.509-3.987-8.673l1.19-1.19 1.597 1.595a1.025 1.025 0 001.55-.117l4.881-6.62a5.032 5.032 0 00-.495-6.583zM51.98 28.262c0-.257.1-.499.282-.68l2.889-2.89 1.362 1.363-2.888 2.889a.957.957 0 01-.681.282c-.258 0-.5-.1-.681-.282a.956.956 0 01-.283-.682zm-2.538-9.277l.911.91-2.888 2.889a.957.957 0 01-.681.282.964.964 0 01-.681-1.645l2.888-2.888.451.452zm-3.464-3.465l1.563 1.563-2.888 2.889a3.017 3.017 0 000 4.261 2.99 2.99 0 002.13.883c.806 0 1.563-.314 2.132-.883l2.888-2.888 1.898 1.898-2.888 2.888a2.994 2.994 0 00-.883 2.131c0 .805.314 1.562.883 2.131a2.99 2.99 0 002.13.883c.806 0 1.562-.314 2.132-.883l2.888-2.888 1.563 1.563-6.585 6.585-13.548-13.548 6.585-6.585zm-4.315 38.394h1.113v6.961h-1.113v-6.961zm-7.037-2.05l5.779-5.673c-.003.087-.007.175-.007.263 0 2.128.897 4.05 2.332 5.41h-8.104zm-7.402 6.27c.385-.15.757-.326 1.113-.527v3.268h-1.113v-2.74zm7.22-4.22h1.113v6.961h-1.113v-6.961zM32.76 50.82c.026-.274.04-.552.04-.833 0-4.82-3.921-8.742-8.741-8.742-.189 0-.376.008-.562.02l5.716-5.588a5.808 5.808 0 005.785 5.386 5.809 5.809 0 005.786-6.209l5.88 4.236a7.446 7.446 0 00-4.078 2.088l.001-.007-9.828 9.649zM14.588 36.084l1.57 1.57 1.922 5.966a8.798 8.798 0 00-1.546 1.927c-2.376-.528-4.155-2.68-4.155-5.165 0-1.722.831-3.31 2.21-4.298zM35 31.511a3.756 3.756 0 013.752 3.751A3.756 3.756 0 0135 39.014a3.756 3.756 0 01-3.752-3.752A3.756 3.756 0 0135 31.511zM51.02 39.7s-12.393-8.967-12.538-9.076A5.772 5.772 0 0035 29.46a5.78 5.78 0 00-3.92 1.529L19.738 42.076l-1.511-4.692L32.48 23.13h5.037l14.254 14.254-.746 2.319a.087.087 0 01-.007-.003zM14.85 24.693l2.888 2.888a.957.957 0 01.282.681c0 .258-.1.5-.282.681a.957.957 0 01-.682.283.953.953 0 01-.68-.282l-2.89-2.889 1.363-1.362zM6.82 29.82L5.5 28.03l17.484-17.483 1.79 1.319L6.82 29.82zm5.216-2.316l2.888 2.888c.57.57 1.326.883 2.131.883.805 0 1.562-.314 2.131-.883a2.99 2.99 0 00.883-2.13c0-.806-.314-1.562-.883-2.132l-2.888-2.888.024-.024 1.874-1.874 2.888 2.888c.57.57 1.326.883 2.131.883.805 0 1.562-.314 2.131-.883a3.017 3.017 0 000-4.262l-2.888-2.888 1.563-1.563 6.585 6.585-13.548 13.548-6.585-6.584 1.563-1.564zm8.972-8.972l2.889 2.888a.964.964 0 01-1.363 1.363l-2.888-2.889 1.362-1.362zm-12.73 21.85a9.402 9.402 0 013.39-7.22l1.458 1.459a7.32 7.32 0 00-2.796 5.76c0 1.84.687 3.602 1.934 4.96a7.338 7.338 0 003.431 2.11 8.686 8.686 0 00-.36 2.03c-4.096-1.05-7.058-4.772-7.058-9.1zm9.09 9.606a6.699 6.699 0 016.692-6.691 6.699 6.699 0 016.691 6.69 6.699 6.699 0 01-6.691 6.692 6.699 6.699 0 01-6.691-6.691zm6.801 12.916c-.552 0-1.002-.45-1.002-1.004v-3.216a8.784 8.784 0 002.006-.028V61.9c0 .553-.45 1.004-1.004 1.004zm7.22 0c-.553 0-1.003-.45-1.003-1.004v-5.875l2.006-1.97V61.9c0 .553-.45 1.004-1.004 1.004zm7.22 0c-.553 0-1.003-.45-1.003-1.004v-7.986h2.006V61.9c0 .553-.45 1.003-1.003 1.003zm7.22 0c-.554 0-1.004-.45-1.004-1.004v-7.986h2.006V61.9c0 .553-.45 1.003-1.003 1.003zm2.027-11.041a5.415 5.415 0 01-5.409-5.41 5.415 5.415 0 015.41-5.408 5.415 5.415 0 015.409 5.409 5.415 5.415 0 01-5.41 5.409zm9.76-11.481a5.276 5.276 0 01-2.474 4.478 7.46 7.46 0 00-2.34-3.984l1.037-3.222 1.57-1.57a5.276 5.276 0 012.208 4.298zm5.562-10.56L45.224 11.867l1.79-1.32L64.497 28.03l-1.32 1.79zm4.174-5.662l-1.624 2.202L48.683 9.317l2.202-1.624a2.993 2.993 0 013.916.294l12.257 12.257a2.993 2.993 0 01.294 3.916z"/><path d="M27.155 49.988a3.098 3.098 0 00-3.094-3.094 3.098 3.098 0 00-3.094 3.094 3.098 3.098 0 003.094 3.094 3.098 3.098 0 003.095-3.094zm-4.138 0a1.045 1.045 0 012.088 0 1.045 1.045 0 01-2.088 0zm24.841-6.628a3.098 3.098 0 00-3.094 3.094 3.098 3.098 0 003.094 3.094 3.098 3.098 0 003.094-3.094 3.098 3.098 0 00-3.094-3.094zm0 4.138a1.045 1.045 0 010-2.088 1.045 1.045 0 010 2.088z"/></g><defs><clipPath id="cclip0"><path d="M0 0h70v70H0z"/></clipPath></defs></symbol><symbol viewBox="0 0 344.96 344.96" id="check" xmlns="http://www.w3.org/2000/svg"><g data-name="Слой 2"><path d="M321.85 86.24l-40-23.11-23.1-40H212.5L172.48 0l-40 23.11H86.24l-23.11 40-40 23.1v46.21L0 172.48l23.11 40v46.21l40 23.11 23.11 40h46.21l40 23.1 40-23.11h46.21l23.11-40 40-23.11V212.5l23.11-40-23.11-40V86.24zM156.91 243.07a16.79 16.79 0 01-23.34 0l-50.45-50.44a16.19 16.19 0 010-22.89l13.35-13.35a16.19 16.19 0 0122.89 0l25.87 25.87 80.34-80.35a16.19 16.19 0 0122.89 0l13.35 13.35a16.19 16.19 0 010 22.89z" data-name="Capa 1"/></g></symbol><symbol viewBox="0 0 70 70" id="coins" xmlns="http://www.w3.org/2000/svg"><g clip-path="url(#eclip0)"><path d="M16.935 2.267C7.441 2.267 0 6.235 0 11.292v47.416c0 5.07 7.44 9.025 16.935 9.025 9.494 0 16.935-3.968 16.935-9.025V11.292c0-5.057-7.44-9.025-16.935-9.025zM31.61 58.722c0 3.265-5.897 6.779-14.675 6.779S2.26 61.987 2.26 58.721v-2.218c2.894 2.7 8.323 4.478 14.675 4.478s11.782-1.777 14.675-4.478v2.218zm0-6.78c0 3.266-5.897 6.78-14.675 6.78S2.26 55.207 2.26 51.941v-2.218c2.894 2.7 8.323 4.478 14.675 4.478s11.782-1.778 14.675-4.478v2.218zm0-6.78c0 3.266-5.897 6.78-14.675 6.78s-14.675-3.5-14.675-6.78v-2.218c2.894 2.7 8.323 4.478 14.675 4.478s11.782-1.777 14.675-4.478v2.218zm0-6.765c0 3.265-5.897 6.78-14.675 6.78S2.26 41.661 2.26 38.396v-2.219c2.894 2.687 8.323 4.479 14.675 4.479s11.782-1.778 14.675-4.479v2.219zm0-6.78c0 3.266-5.897 6.78-14.675 6.78s-14.675-3.5-14.675-6.78V29.4c2.894 2.7 8.323 4.478 14.675 4.478S28.717 32.1 31.61 29.4v2.218zm0-6.766c0 3.266-5.897 6.78-14.675 6.78S2.26 28.117 2.26 24.851v-2.218c2.894 2.7 8.323 4.478 14.675 4.478s11.782-1.777 14.675-4.478v2.218zm0-6.78c0 3.267-5.897 6.78-14.675 6.78S2.26 21.338 2.26 18.071v-2.218c2.894 2.701 8.323 4.479 14.675 4.479s11.782-1.778 14.675-4.479v2.219zm-14.675 0c-8.778 0-14.675-3.5-14.675-6.779 0-3.265 5.897-6.78 14.675-6.78s14.675 3.5 14.675 6.78c0 3.28-5.897 6.78-14.675 6.78zm36.13 11.286c-9.494 0-16.935 3.969-16.935 9.026v20.325c0 5.07 7.441 9.025 16.935 9.025C62.56 67.733 70 63.778 70 58.721V38.397c0-5.071-7.44-9.04-16.935-9.04zm14.676 29.364c0 3.266-5.898 6.78-14.676 6.78-8.777 0-14.675-3.5-14.675-6.78v-2.218c2.894 2.7 8.323 4.478 14.675 4.478 6.353 0 11.782-1.777 14.676-4.478v2.218zm0-6.78c0 3.267-5.898 6.78-14.676 6.78-8.777 0-14.675-3.5-14.675-6.78v-2.218c2.894 2.701 8.323 4.479 14.675 4.479 6.353 0 11.782-1.778 14.676-4.479v2.219zm0-6.779c0 3.266-5.898 6.78-14.676 6.78-8.777 0-14.675-3.5-14.675-6.78v-2.218c2.894 2.7 8.323 4.478 14.675 4.478 6.353 0 11.782-1.777 14.676-4.478v2.218zm-14.676 0c-8.777 0-14.675-3.5-14.675-6.78 0-3.265 5.898-6.779 14.675-6.779 8.778 0 14.676 3.5 14.676 6.78 0 3.28-5.898 6.78-14.676 6.78z"/></g><defs><clipPath id="eclip0"><path d="M0 0h70v70H0z"/></clipPath></defs></symbol><symbol viewBox="0 0 70 70" id="engineer" xmlns="http://www.w3.org/2000/svg"><path d="M66.992 36.991a11.087 11.087 0 00-7.297-3.446l-.672-.066a1.035 1.035 0 00-.1-.005c-1.04 0-2.088.166-3.187.504l-.795-.795a3.955 3.955 0 00-.87-4.265l-.136-.136a3.962 3.962 0 00-2.995-1.157 3.961 3.961 0 00-1.156-2.994l-.131-.132a3.964 3.964 0 00-2.995-1.156 3.961 3.961 0 00-1.156-2.994l-.131-.132a3.964 3.964 0 00-2.995-1.155 3.964 3.964 0 00-1.16-2.999l-.128-.127a3.953 3.953 0 00-4.273-.875l-.792-.792c.338-1.09.503-2.14.503-3.189 0-.031 0-.063-.004-.094l-.062-.675a11.066 11.066 0 00-1.287-4.47 1.025 1.025 0 00-1.808.966 9.028 9.028 0 011.05 3.657l.002.023.058.638c-.005.99-.199 1.994-.59 3.068-.137.375-.044.795.238 1.077l1.015 1.015-4.466 4.466-1.015-1.015a1.025 1.025 0 00-1.081-.236c-1.052.39-2.059.582-3.076.588l-.618-.062-.03-.002c-4.716-.324-8.41-4.253-8.41-8.944 0-.838.12-1.667.36-2.48l5.56 5.549c.404.421.916.747 1.554.99a4.18 4.18 0 001.535.297c1.17 0 2.268-.455 3.084-1.271 1.201-1.174 1.601-2.984 1.019-4.61a.905.905 0 00-.023-.058c-.176-.412-.47-1.018-.995-1.522l-5.554-5.557a8.51 8.51 0 012.469-.367 8.85 8.85 0 015.583 1.955 1.025 1.025 0 101.28-1.602A10.88 10.88 0 0025.451 0c-1.63 0-3.227.376-4.747 1.117a1.026 1.026 0 00-.276 1.646l6.665 6.67a.82.82 0 00.018.016c.194.185.355.44.522.824.299.867.092 1.816-.54 2.433a2.308 2.308 0 01-1.642.679 2.16 2.16 0 01-.794-.158c-.361-.138-.629-.302-.819-.502a1.73 1.73 0 00-.019-.02l-6.683-6.669a1.026 1.026 0 00-1.65.285 11 11 0 00-1.095 4.759c0 2.82 1.066 5.5 3.001 7.544a11.073 11.073 0 005.777 3.232c-.778 1.808-.477 3.985.892 5.506l-2.38 2.38a4.67 4.67 0 00-1.378 3.326 4.67 4.67 0 001.185 3.122l-3.692 3.693-2.208-2.208c-.4-.4-1.05-.4-1.45 0l-5.511 5.51-.007.008L.302 51.51c-.4.4-.4 1.05 0 1.45l6.394 6.394a1.026 1.026 0 001.45-1.45l-5.669-5.669 7.68-7.68 15.288 15.29-7.68 7.679-6.763-6.764a1.026 1.026 0 00-1.45 1.45l7.489 7.489a1.026 1.026 0 001.45 0l8.313-8.313.014-.013 5.509-5.51a1.025 1.025 0 000-1.45l-1.68-1.68 3.765-3.766a4.671 4.671 0 005.29-.17 1.025 1.025 0 10-1.208-1.657 2.636 2.636 0 01-3.435-.27 1.026 1.026 0 00-1.45 0l-4.412 4.412-9.951-9.95 4.411-4.412c.4-.4.4-1.048.001-1.449l-.527-.529a2.636 2.636 0 01-.777-1.876c0-.708.276-1.374.777-1.874l3.097-3.098.004-.003.003-.004 5.155-5.155.007-.007.006-.007 5.534-5.534a1.905 1.905 0 012.704.004l.13.128a1.908 1.908 0 01.002 2.697l-.003.003-6.105 6.105a1.025 1.025 0 001.45 1.45l6.1-6.1.005-.005a1.91 1.91 0 012.7 0l.132.131a1.91 1.91 0 010 2.701l-6.105 6.105a1.025 1.025 0 001.45 1.45l6.105-6.104a1.908 1.908 0 012.7 0l.132.13a1.91 1.91 0 010 2.701l-.004.004-6.1 6.101a1.025 1.025 0 001.45 1.45l6.104-6.104.003-.003a1.905 1.905 0 012.694-.001l.135.136a1.908 1.908 0 010 2.7L41.262 44.42a1.025 1.025 0 101.45 1.45l5.088-5.09.565.565a10.732 10.732 0 00-.502 3.208c0 .032.002.064.005.096l.062.657a11.093 11.093 0 003.445 7.305 10.938 10.938 0 007.548 3.002c1.623 0 3.222-.37 4.753-1.096a1.025 1.025 0 00.286-1.65l-6.67-6.686a2.024 2.024 0 01-.514-.825c-.325-.878-.13-1.814.512-2.447a2.307 2.307 0 011.633-.682 2.05 2.05 0 01.797.16c.374.141.637.3.827.5a.811.811 0 00.018.02l6.671 6.669a1.024 1.024 0 001.647-.278c.74-1.523 1.115-3.12 1.115-4.745 0-2.826-1.068-5.512-3.007-7.562zM28.472 53.46l1.68 1.68-3.256 3.256-15.29-15.289 3.257-3.256 2.207 2.207v.001h.002l11.4 11.4zm-2.956-27.552a3.125 3.125 0 01-.165-3.773c.033.003.066.005.1.005 1.056 0 2.132-.168 3.206-.502l.564.564-3.705 3.706zm42.066 21.114l-5.557-5.556c-.402-.42-.916-.744-1.569-.992a4.085 4.085 0 00-1.533-.297 4.342 4.342 0 00-3.075 1.276c-1.2 1.183-1.59 2.99-.995 4.608.212.604.555 1.15.995 1.576l5.552 5.565a8.73 8.73 0 01-2.476.361c-4.694 0-8.624-3.694-8.948-8.41a.742.742 0 00-.002-.026l-.059-.619a8.87 8.87 0 01.588-3.073c.142-.377.05-.801-.235-1.086l-1.017-1.017 4.469-4.469 1.014 1.015c.281.281.7.374 1.073.24 1.085-.392 2.09-.585 3.068-.592l.635.062.03.003c4.715.325 8.408 4.263 8.408 8.964 0 .832-.123 1.657-.366 2.467z"/></symbol><symbol viewBox="0 0 24 24" id="fb" xmlns="http://www.w3.org/2000/svg"><path d="M13.397 20.997v-8.196h2.765l.411-3.209h-3.176V7.548c0-.926.258-1.56 1.587-1.56h1.684v-2.86A22.108 22.108 0 0014.201 3c-2.444 0-4.122 1.492-4.122 4.231v2.355H7.332v3.21h2.753v8.201h3.312z"/></symbol><symbol viewBox="0 0 24 24" id="instagram" xmlns="http://www.w3.org/2000/svg"><path d="M11.999 7.377a4.624 4.624 0 100 9.248 4.624 4.624 0 000-9.248zm0 7.627a3.004 3.004 0 110-6.008 3.004 3.004 0 010 6.008zm4.807-6.719a1.078 1.078 0 100-2.156 1.078 1.078 0 000 2.156z"/><path d="M20.533 6.11A4.605 4.605 0 0017.9 3.48a6.607 6.607 0 00-2.186-.42c-.963-.042-1.268-.054-3.71-.054s-2.755 0-3.71.054a6.554 6.554 0 00-2.184.42 4.6 4.6 0 00-2.633 2.63 6.585 6.585 0 00-.419 2.186c-.043.962-.056 1.267-.056 3.71 0 2.442 0 2.753.056 3.71.015.748.156 1.486.419 2.187a4.61 4.61 0 002.634 2.632 6.583 6.583 0 002.185.45c.963.042 1.268.055 3.71.055s2.755 0 3.71-.055a6.616 6.616 0 002.186-.42 4.613 4.613 0 002.633-2.632c.263-.7.404-1.438.419-2.186.043-.962.056-1.267.056-3.71s0-2.753-.056-3.71a6.583 6.583 0 00-.421-2.217zm-1.218 9.533a5.046 5.046 0 01-.311 1.688 2.987 2.987 0 01-1.712 1.71c-.535.2-1.1.305-1.67.312-.95.044-1.218.055-3.654.055-2.438 0-2.687 0-3.655-.055a4.961 4.961 0 01-1.67-.311 2.984 2.984 0 01-1.718-1.711 5.08 5.08 0 01-.311-1.67c-.043-.95-.053-1.217-.053-3.653 0-2.437 0-2.686.053-3.655a5.038 5.038 0 01.311-1.687c.305-.79.93-1.41 1.719-1.712a5.01 5.01 0 011.669-.311c.95-.043 1.218-.055 3.655-.055s2.687 0 3.654.055a4.96 4.96 0 011.67.31 2.99 2.99 0 011.712 1.713 5.06 5.06 0 01.311 1.669c.043.95.054 1.218.054 3.655 0 2.436 0 2.698-.043 3.654h-.011v-.001z"/></symbol><symbol viewBox="0 0 70 70" id="paper" xmlns="http://www.w3.org/2000/svg"><g clip-path="url(#iclip0)"><path d="M69.424 8.835L61.16.955C60.846.652 60.52.34 59.914.34H26.81c-.967 0-1.753.786-1.753 1.753V7.48l-11.667 2a1.728 1.728 0 00-1.402 1.993l.592 3.452C8.789 16.2 4.895 17.516 1.137 18.866a1.736 1.736 0 00-1.038 2.206l7.477 20.783a1.026 1.026 0 101.93-.694L2.14 20.685c3.54-1.268 7.208-2.509 10.792-3.715l3.523 20.541 4.054 23.657a1.737 1.737 0 001.994 1.406l10.98-1.885 8.58-1.47-12.904 4.638-10.177 3.66-7.903-21.984a1.025 1.025 0 00-1.93.694l8.016 22.295c.256.701.92 1.137 1.622 1.137a1.7 1.7 0 00.583-.103l10.482-3.769 23.802-8.555 4.547-.78h10.045c.967 0 1.754-.788 1.754-1.757V9.99c0-.614-.333-.927-.576-1.155zm-2.717.243H61.45c-.246.002-.82.006-.967-.139-.033-.033-.073-.145-.073-.353l-.012-5.525 6.31 6.017zm1.242 45.324H27.11V34.417a1.025 1.025 0 00-2.051 0v20.277c0 .969.786 1.757 1.753 1.757h19.252l-12.926 2.216-10.662 1.83-3.999-23.334-4.411-25.72 10.992-1.885v20.1a1.025 1.025 0 002.051 0V2.392h31.237l.013 6.197c0 .752.229 1.36.68 1.806.692.688 1.67.736 2.278.736l.148-.001h6.485V54.4z"/><path d="M32.051 16.262c0 .567.46 1.026 1.026 1.026h29.317a1.025 1.025 0 000-2.05H33.077c-.567 0-1.026.458-1.026 1.024zm30.343 6.26H33.077a1.025 1.025 0 000 2.05h29.317a1.025 1.025 0 000-2.05zm0 7.284H33.077a1.025 1.025 0 100 2.051h29.317a1.025 1.025 0 000-2.05zm0 7.285H33.077a1.025 1.025 0 000 2.05h29.317a1.025 1.025 0 100-2.05zm0 7.285H33.077a1.025 1.025 0 000 2.05h29.317a1.025 1.025 0 000-2.05z"/></g><defs><clipPath id="iclip0"><path d="M0 0h70v70H0z"/></clipPath></defs></symbol><symbol viewBox="0 0 70 70" id="shipped" xmlns="http://www.w3.org/2000/svg"><path d="M65.1 31.632l-1.813-7.251c.496-.105.867-.545.867-1.072V22.14a4.609 4.609 0 00-4.603-4.603h-8.257v-2.412a2.268 2.268 0 00-2.265-2.265H6.941a2.268 2.268 0 00-2.265 2.265V35a1.096 1.096 0 102.192 0V15.125c0-.04.033-.073.073-.073H49.03c.04 0 .073.033.073.073V35a1.096 1.096 0 002.192 0v-1.242H64.23a3.587 3.587 0 013.405 2.484h-3.408c-.605 0-1.096.49-1.096 1.096v2.338a3.438 3.438 0 003.434 3.435h1.243v4.822h-2.866c-.942-2.718-3.526-4.676-6.56-4.676-3.035 0-5.619 1.958-6.56 4.676h-.528v-8.257a1.096 1.096 0 00-2.192 0v8.257h-22.74c-.942-2.718-3.526-4.676-6.56-4.676-3.035 0-5.62 1.958-6.56 4.676h-6.3a.073.073 0 01-.074-.073v-2.411h4.75a1.096 1.096 0 000-2.192H1.096a1.096 1.096 0 100 2.192h3.58v2.41a2.268 2.268 0 002.266 2.266h5.92l-.002.073a6.95 6.95 0 006.942 6.942 6.95 6.95 0 006.941-6.942l-.002-.073h24.701l-.002.073a6.95 6.95 0 006.942 6.942 6.95 6.95 0 006.941-6.942l-.002-.073h3.583c.605 0 1.096-.49 1.096-1.096V37.338a5.781 5.781 0 00-4.9-5.706zM51.294 19.729h8.257a2.414 2.414 0 012.411 2.411v.073H51.294v-2.484zm0 11.837v-7.161h9.74l1.79 7.16h-11.53zM19.802 54.948a4.755 4.755 0 01-4.75-4.75c0-2.619 2.13-4.75 4.75-4.75a4.756 4.756 0 014.75 4.75c0 2.62-2.131 4.75-4.75 4.75zm38.58 0a4.755 4.755 0 01-4.75-4.75c0-2.619 2.131-4.75 4.75-4.75s4.75 2.131 4.75 4.75c0 2.62-2.131 4.75-4.75 4.75zm9.426-14.03h-1.242a1.244 1.244 0 01-1.243-1.242v-1.242h2.485v2.485z"/><path d="M19.801 47.933a2.268 2.268 0 00-2.265 2.265 2.268 2.268 0 002.265 2.266 2.268 2.268 0 002.265-2.266 2.268 2.268 0 00-2.265-2.265zm38.581 0a2.268 2.268 0 00-2.265 2.265 2.268 2.268 0 002.265 2.266 2.268 2.268 0 002.265-2.266 2.268 2.268 0 00-2.265-2.265zm-12.86-4.676H29.155a1.096 1.096 0 000 2.192h16.367a1.096 1.096 0 000-2.192zM17.464 38.58H3.434a1.096 1.096 0 000 2.193h14.03a1.096 1.096 0 100-2.193zm20.65-14.877a1.096 1.096 0 00-1.55 0l-9.747 9.747-5.071-5.07a1.096 1.096 0 10-1.55 1.55l5.846 5.845a1.092 1.092 0 001.55 0l10.521-10.522a1.096 1.096 0 000-1.55z"/></symbol><symbol viewBox="0 0 70 70" id="tag" xmlns="http://www.w3.org/2000/svg"><g clip-path="url(#kclip0)"><path d="M62.007 7.552a5.328 5.328 0 00-5.328-5.322h-22.31a5.328 5.328 0 00-3.767 1.56L1.562 32.825a5.329 5.329 0 00-.001 7.536L23.87 62.67a5.312 5.312 0 003.768 1.56 5.31 5.31 0 002.485-.643c2.847-2.344-1.365 1.73 30.323-29.952 1-1 1.561-2.355 1.561-3.769V7.552zm-2.664 22.315c0 .712-.277 1.381-.78 1.884L29.52 60.787a2.647 2.647 0 01-1.883.78 2.647 2.647 0 01-1.884-.78l-22.31-22.31a2.647 2.647 0 01-.78-1.884c0-.712.278-1.38.78-1.884L32.487 5.674a2.647 2.647 0 011.883-.78h22.31a2.667 2.667 0 012.664 2.664v22.31z"/><path d="M67.337 7.558v24.973c0 .712-.278 1.381-.781 1.885L35.08 65.886l1.883 1.884L68.44 36.3c1-1 1.56-2.355 1.56-3.769V7.558h-2.663zm-19.983 3.997a5.335 5.335 0 00-5.329 5.328 5.334 5.334 0 005.329 5.329 5.334 5.334 0 005.328-5.329 5.335 5.335 0 00-5.328-5.328zm0 7.992a2.667 2.667 0 01-2.664-2.664 2.667 2.667 0 012.664-2.664 2.667 2.667 0 012.664 2.664 2.667 2.667 0 01-2.664 2.665z"/></g><defs><clipPath id="kclip0"><path d="M0 0h70v70H0z"/></clipPath></defs></symbol><symbol viewBox="0 0 16 16" id="telegram" xmlns="http://www.w3.org/2000/svg"><path d="M14.629 3.698l-2.012 9.618c-.152.679-.548.848-1.11.528l-3.066-2.29-1.48 1.442c-.163.166-.3.305-.616.305l.22-3.165 5.683-5.204c.247-.223-.054-.347-.384-.123L4.839 9.29l-3.024-.959c-.658-.208-.67-.667.137-.986L13.78 2.727c.548-.208 1.027.124.849.971z"/></symbol><symbol viewBox="0 0 16 16" id="viber" xmlns="http://www.w3.org/2000/svg"><path d="M8 1.335c-1.071.013-3.374.19-4.662 1.37-.958.948-1.292 2.35-1.331 4.084-.033 1.728-.072 4.973 3.058 5.856v1.346s-.02.538.337.648c.438.14.688-.275 1.105-.72l.778-.879c2.142.178 3.782-.232 3.97-.293.435-.139 2.883-.451 3.283-3.696.41-3.351-.2-5.463-1.301-6.418h-.007c-.332-.306-1.668-1.279-4.652-1.29 0 0-.222-.014-.578-.008zm.037.942a7.02 7.02 0 01.488.011c2.527.007 3.732.767 4.017 1.023.927.794 1.405 2.697 1.055 5.495-.332 2.713-2.317 2.885-2.685 3.002-.156.05-1.6.406-3.42.289 0 0-1.356 1.634-1.78 2.055-.067.074-.146.095-.196.085-.071-.018-.093-.107-.089-.229l.013-2.233c-2.655-.733-2.498-3.5-2.47-4.946.033-1.446.304-2.628 1.113-3.43 1.088-.982 3.043-1.115 3.953-1.122zm.2 1.446a.166.166 0 100 .332 3.136 3.136 0 012.242.883c.606.588.9 1.378.912 2.411 0 .092.074.167.167.167V7.51a.167.167 0 00.168-.165 3.588 3.588 0 00-1.009-2.646c-.66-.645-1.496-.977-2.48-.977zm-2.198.382a.523.523 0 00-.342.067H5.69a2.61 2.61 0 00-.637.523 1.003 1.003 0 00-.256.525.71.71 0 00.026.302l.01.006c.172.504.396.988.67 1.444a8.48 8.48 0 001.29 1.762l.015.022.024.017.015.018.017.015c.532.505 1.127.94 1.769 1.295.734.4 1.18.588 1.447.667v.004c.078.024.15.034.221.034.228-.016.444-.109.613-.262a2.53 2.53 0 00.517-.638v-.004c.128-.241.085-.469-.1-.623-.37-.323-.77-.61-1.195-.857-.285-.155-.574-.061-.69.095l-.25.315c-.129.156-.361.134-.361.134l-.007.004C7.093 8.527 6.63 6.772 6.63 6.772s-.022-.239.139-.36l.312-.252c.15-.122.254-.41.094-.695a7.498 7.498 0 00-.856-1.194.475.475 0 00-.28-.167zm2.486.495c-.221 0-.221.334.003.334A2.098 2.098 0 0110 5.572 1.94 1.94 0 0110.5 7a.168.168 0 00.167.165l.007.009a.169.169 0 00.167-.167c.015-.662-.191-1.218-.595-1.663C9.84 4.9 9.273 4.65 8.549 4.6h-.024zm.274.898c-.228-.006-.236.335-.01.341.55.029.816.306.851.877a.166.166 0 00.165.163h.007a.168.168 0 00.16-.178c-.039-.744-.445-1.164-1.166-1.202H8.8z"/></symbol><symbol viewBox="0 0 24 24" id="vk" xmlns="http://www.w3.org/2000/svg"><path d="M21.579 6.855c.14-.465 0-.806-.662-.806h-2.193c-.558 0-.813.295-.953.619 0 0-1.115 2.719-2.695 4.482-.51.513-.743.675-1.021.675-.139 0-.341-.162-.341-.627V6.855c0-.558-.161-.806-.626-.806H9.642c-.348 0-.558.258-.558.504 0 .528.79.65.871 2.138v3.228c0 .707-.127.836-.407.836-.743 0-2.551-2.73-3.624-5.853-.209-.607-.42-.852-.98-.852H2.752c-.627 0-.752.295-.752.619 0 .582.743 3.462 3.461 7.27 1.812 2.602 4.363 4.012 6.687 4.012 1.393 0 1.565-.313 1.565-.853v-1.966c0-.626.133-.752.574-.752.324 0 .882.164 2.183 1.417 1.486 1.486 1.732 2.153 2.567 2.153h2.192c.626 0 .939-.313.759-.931-.197-.615-.907-1.51-1.849-2.57-.512-.603-1.277-1.253-1.51-1.578-.325-.42-.231-.604 0-.976.001 0 2.672-3.761 2.95-5.04z"/></symbol><symbol viewBox="0 0 70 70" id="wallet" xmlns="http://www.w3.org/2000/svg"><path d="M65.898 37.733h-1.367v-9.57c0-3.773-2.65-6.937-6.185-7.734L52.124 9.65a6.784 6.784 0 00-4.147-3.182 6.785 6.785 0 00-3.73.054l-4.524-4.525a6.836 6.836 0 00-9.657 0L11.832 20.233H7.93c-4.373 0-7.93 3.557-7.93 7.93v33.906c0 4.372 3.557 7.93 7.93 7.93h18.183a1.367 1.367 0 000-2.735H7.93a5.201 5.201 0 01-5.196-5.195V28.163a5.201 5.201 0 015.196-5.196h48.672a5.201 5.201 0 015.195 5.196v9.57H51.68c-4.071 0-7.383 3.312-7.383 7.383 0 4.07 3.312 7.383 7.383 7.383h10.117v9.57a5.201 5.201 0 01-5.195 5.195H38.418a1.367 1.367 0 000 2.735h18.184c4.372 0 7.93-3.558 7.93-7.93v-9.57h1.366A4.106 4.106 0 0070 48.397v-6.563a4.106 4.106 0 00-4.102-4.101zM47.27 9.11a4.066 4.066 0 012.486 1.908l5.32 9.215h-29.47L44.163 9.519a4.067 4.067 0 013.107-.409zM32 3.932a4.067 4.067 0 012.895-1.2c1.093 0 2.121.427 2.894 1.2l3.874 3.873-21.525 12.428h-4.44L32 3.933zm35.266 44.465a1.37 1.37 0 01-1.368 1.367H51.68a4.654 4.654 0 01-4.649-4.648 4.654 4.654 0 014.649-4.649h14.218a1.37 1.37 0 011.368 1.367v6.563z"/><path d="M51.451 43.748c-.36 0-.712.146-.966.4a1.375 1.375 0 00-.401.967c0 .36.146.713.4.967.255.254.608.4.967.4a1.371 1.371 0 001.367-1.367 1.372 1.372 0 00-1.367-1.367zM32.266 67.264c-.36 0-.713.146-.967.4-.254.255-.4.608-.4.967 0 .36.146.712.4.967.254.254.607.4.967.4s.712-.146.966-.4a1.371 1.371 0 000-1.933 1.377 1.377 0 00-.966-.401z"/></symbol><symbol viewBox="0 0 16 16" id="whatsapp" xmlns="http://www.w3.org/2000/svg"><path fill-rule="evenodd" clip-rule="evenodd" d="M12.269 3.755A5.947 5.947 0 008.035 2 5.994 5.994 0 002.05 7.985a5.98 5.98 0 00.799 2.992L2 14.077l3.173-.832c.877.477 1.86.728 2.86.728h.002a5.993 5.993 0 005.533-8.276 5.953 5.953 0 00-1.3-1.942zm-4.234 9.208h-.002c-.89 0-1.765-.24-2.532-.694l-.181-.108-1.883.494.502-1.835-.118-.188a4.965 4.965 0 01-.76-2.647 4.982 4.982 0 016.88-4.597c.604.25 1.152.618 1.613 1.081a4.946 4.946 0 011.455 3.52 4.982 4.982 0 01-4.974 4.974zm2.729-3.726c-.15-.075-.885-.436-1.022-.486-.137-.05-.236-.075-.336.074-.1.15-.387.486-.474.586-.087.1-.175.112-.324.038-.15-.075-.631-.233-1.203-.742a4.505 4.505 0 01-.832-1.036c-.087-.15-.009-.231.066-.306.068-.066.15-.174.224-.262.075-.087.1-.149.15-.249.05-.1.025-.187-.013-.262-.037-.075-.337-.811-.461-1.11-.121-.29-.244-.252-.336-.256a6.418 6.418 0 00-.286-.005.55.55 0 00-.4.186c-.137.15-.523.512-.523 1.248s.536 1.447.61 1.547c.075.1 1.055 1.61 2.555 2.258.358.154.636.246.853.315.358.114.684.098.942.06.287-.043.885-.362 1.01-.711.124-.35.124-.649.087-.711-.038-.063-.138-.101-.287-.176z"/></symbol></svg>