<?xml version="1.0" encoding="utf-8"?><svg xmlns="http://www.w3.org/2000/svg" xmlns:xlink="http://www.w3.org/1999/xlink"><symbol viewBox="0 0 8 12" id="arrow" xmlns="http://www.w3.org/2000/svg"><path d="M7.333 5.532L1.993.192A.652.652 0 001.529 0a.652.652 0 00-.464.192L.67.585a.657.657 0 000 .928l4.485 4.485-4.49 4.489a.652.652 0 00-.191.464c0 .176.068.34.191.464l.394.393a.652.652 0 00.464.192.65.65 0 00.464-.192l5.345-5.345a.653.653 0 00.191-.465.652.652 0 00-.19-.466z"/></symbol><symbol viewBox="0 0 20 20" id="basket" xmlns="http://www.w3.org/2000/svg"><g clip-path="url(#bclip0)"><path d="M18.927 3.371a2.492 2.492 0 00-1.919-.89H3.535L3.5 2.19A2.474 2.474 0 002.679.626 2.511 2.511 0 001.019 0H.832a.837.837 0 00-.589.242.824.824 0 000 1.17.837.837 0 00.59.242h.184c.204 0 .401.074.554.209.153.134.25.32.274.52l1.147 9.675a4.124 4.124 0 001.369 2.607A4.185 4.185 0 007.13 15.71h8.702a.837.837 0 00.59-.242.824.824 0 000-1.17.837.837 0 00-.59-.242H7.131a2.513 2.513 0 01-1.44-.457 2.482 2.482 0 01-.91-1.196h9.933c.977 0 1.923-.34 2.673-.962A4.127 4.127 0 0018.815 9l.654-3.6a2.457 2.457 0 00-.542-2.03zm-1.094 1.737l-.655 3.6a2.476 2.476 0 01-.858 1.465 2.512 2.512 0 01-1.606.576H4.516l-.784-6.615h13.276a.839.839 0 01.643.295.824.824 0 01.182.68zm-12 14.737c.92 0 1.667-.74 1.667-1.654a1.66 1.66 0 00-1.667-1.654c-.92 0-1.667.74-1.667 1.654a1.66 1.66 0 001.667 1.654zm8.334 0c.92 0 1.666-.74 1.666-1.654a1.66 1.66 0 00-1.666-1.654c-.92 0-1.667.74-1.667 1.654a1.66 1.66 0 001.667 1.654z"/></g><defs><clipPath id="bclip0"><path d="M0 0h20v19.844H0z"/></clipPath></defs></symbol><symbol viewBox="0 0 344.96 344.96" id="check" xmlns="http://www.w3.org/2000/svg"><g data-name="Слой 2"><path d="M321.85 86.24l-40-23.11-23.1-40H212.5L172.48 0l-40 23.11H86.24l-23.11 40-40 23.1v46.21L0 172.48l23.11 40v46.21l40 23.11 23.11 40h46.21l40 23.1 40-23.11h46.21l23.11-40 40-23.11V212.5l23.11-40-23.11-40V86.24zM156.91 243.07a16.79 16.79 0 01-23.34 0l-50.45-50.44a16.19 16.19 0 010-22.89l13.35-13.35a16.19 16.19 0 0122.89 0l25.87 25.87 80.34-80.35a16.19 16.19 0 0122.89 0l13.35 13.35a16.19 16.19 0 010 22.89z" data-name="Capa 1"/></g></symbol><symbol viewBox="0 0 20 20" id="close" xmlns="http://www.w3.org/2000/svg"><path d="M20 2l-2-2-8 8-8-8-2 2 8 8-8 8 2 2 8-8 8 8 2-2-8-8 8-8z"/></symbol><symbol viewBox="0 0 24 24" id="fb" xmlns="http://www.w3.org/2000/svg"><path d="M13.397 20.997v-8.196h2.765l.411-3.209h-3.176V7.548c0-.926.258-1.56 1.587-1.56h1.684v-2.86A22.108 22.108 0 0014.201 3c-2.444 0-4.122 1.492-4.122 4.231v2.355H7.332v3.21h2.753v8.201h3.312z"/></symbol><symbol viewBox="0 0 24 24" id="instagram" xmlns="http://www.w3.org/2000/svg"><path d="M11.999 7.377a4.624 4.624 0 100 9.248 4.624 4.624 0 000-9.248zm0 7.627a3.004 3.004 0 110-6.008 3.004 3.004 0 010 6.008zm4.807-6.719a1.078 1.078 0 100-2.156 1.078 1.078 0 000 2.156z"/><path d="M20.533 6.11A4.605 4.605 0 0017.9 3.48a6.607 6.607 0 00-2.186-.42c-.963-.042-1.268-.054-3.71-.054s-2.755 0-3.71.054a6.554 6.554 0 00-2.184.42 4.6 4.6 0 00-2.633 2.63 6.585 6.585 0 00-.419 2.186c-.043.962-.056 1.267-.056 3.71 0 2.442 0 2.753.056 3.71.015.748.156 1.486.419 2.187a4.61 4.61 0 002.634 2.632 6.583 6.583 0 002.185.45c.963.042 1.268.055 3.71.055s2.755 0 3.71-.055a6.616 6.616 0 002.186-.42 4.613 4.613 0 002.633-2.632c.263-.7.404-1.438.419-2.186.043-.962.056-1.267.056-3.71s0-2.753-.056-3.71a6.583 6.583 0 00-.421-2.217zm-1.218 9.533a5.046 5.046 0 01-.311 1.688 2.987 2.987 0 01-1.712 1.71c-.535.2-1.1.305-1.67.312-.95.044-1.218.055-3.654.055-2.438 0-2.687 0-3.655-.055a4.961 4.961 0 01-1.67-.311 2.984 2.984 0 01-1.718-1.711 5.08 5.08 0 01-.311-1.67c-.043-.95-.053-1.217-.053-3.653 0-2.437 0-2.686.053-3.655a5.038 5.038 0 01.311-1.687c.305-.79.93-1.41 1.719-1.712a5.01 5.01 0 011.669-.311c.95-.043 1.218-.055 3.655-.055s2.687 0 3.654.055a4.96 4.96 0 011.67.31 2.99 2.99 0 011.712 1.713 5.06 5.06 0 01.311 1.669c.043.95.054 1.218.054 3.655 0 2.436 0 2.698-.043 3.654h-.011v-.001z"/></symbol><symbol viewBox="0 0 50 50" id="question" xmlns="http://www.w3.org/2000/svg"><path d="M25 0C11.215 0 0 11.215 0 25s11.215 25 25 25 25-11.215 25-25S38.785 0 25 0zm0 46.875C12.938 46.875 3.125 37.062 3.125 25S12.938 3.125 25 3.125 46.875 12.938 46.875 25 37.062 46.875 25 46.875z"/><path d="M23.438 37.5h3.125v3.125h-3.125V37.5zM25 9.375c-5.17 0-9.375 4.205-9.375 9.375v3.125h3.125V18.75A6.256 6.256 0 0125 12.5a6.256 6.256 0 016.25 6.25 6.753 6.753 0 01-3.26 5.76l-3.794 2.275c-.47.282-.759.79-.759 1.34v6.25h3.125V29.01l3.035-1.82a9.896 9.896 0 004.778-8.44c0-5.17-4.205-9.375-9.375-9.375z"/></symbol><symbol viewBox="0 0 20 20" id="refresh" xmlns="http://www.w3.org/2000/svg"><g clip-path="url(#hclip0)"><path d="M19.29 2.759a.781.781 0 00-.848.707l-.104 1.136C16.582 1.844 13.533 0 10.001 0 6.2 0 2.852 2.169 1.19 5.424a.781.781 0 101.391.71c1.407-2.754 4.232-4.572 7.42-4.572a8.324 8.324 0 017.03 3.884l-1.115-.796a.781.781 0 00-.908 1.272l3.378 2.412a.782.782 0 001.232-.565l.38-4.161a.781.781 0 00-.707-.85zm-.82 10.766a.781.781 0 00-1.051.34c-1.407 2.755-4.232 4.573-7.42 4.573a8.324 8.324 0 01-7.03-3.883l1.115.795a.781.781 0 00.908-1.271l-3.378-2.413a.782.782 0 00-1.232.565l-.38 4.161a.781.781 0 001.556.142l.104-1.135C3.418 18.157 6.467 20 9.999 20c3.8 0 7.15-2.169 8.812-5.424a.781.781 0 00-.34-1.05z"/></g><defs><clipPath id="hclip0"><path d="M0 0h20v20H0z"/></clipPath></defs></symbol><symbol viewBox="0 0 20 20" id="search" xmlns="http://www.w3.org/2000/svg"><path d="M12.53 13.33l5.975 5.882-5.976-5.882zm-4.184 2.353c-3.96 0-7.17-3.16-7.17-7.059 0-3.898 3.21-7.059 7.17-7.059s7.171 3.16 7.171 7.06c0 3.898-3.21 7.058-7.17 7.058z"/></symbol><symbol viewBox="0 0 16 16" id="telegram" xmlns="http://www.w3.org/2000/svg"><path d="M14.629 3.698l-2.012 9.618c-.152.679-.548.848-1.11.528l-3.066-2.29-1.48 1.442c-.163.166-.3.305-.616.305l.22-3.165 5.683-5.204c.247-.223-.054-.347-.384-.123L4.839 9.29l-3.024-.959c-.658-.208-.67-.667.137-.986L13.78 2.727c.548-.208 1.027.124.849.971z"/></symbol><symbol viewBox="0 0 20 20" id="trolley" xmlns="http://www.w3.org/2000/svg"><g clip-path="url(#kclip0)"><path d="M18.927 3.371a2.492 2.492 0 00-1.919-.89H3.535L3.5 2.19A2.474 2.474 0 002.679.626 2.511 2.511 0 001.019 0H.832a.837.837 0 00-.589.242.824.824 0 000 1.17.837.837 0 00.59.242h.184c.204 0 .401.074.554.209.153.134.25.32.274.52l1.147 9.675a4.124 4.124 0 001.369 2.607A4.185 4.185 0 007.13 15.71h8.702a.837.837 0 00.59-.242.824.824 0 000-1.17.837.837 0 00-.59-.242H7.131a2.513 2.513 0 01-1.44-.457 2.482 2.482 0 01-.91-1.196h9.933c.977 0 1.923-.34 2.673-.962A4.127 4.127 0 0018.815 9l.654-3.6a2.457 2.457 0 00-.542-2.03zm-1.094 1.737l-.655 3.6a2.476 2.476 0 01-.858 1.465 2.512 2.512 0 01-1.606.576H4.516l-.784-6.615h13.276a.839.839 0 01.643.295.824.824 0 01.182.68zm-12 14.737c.92 0 1.667-.74 1.667-1.654a1.66 1.66 0 00-1.667-1.654c-.92 0-1.667.74-1.667 1.654a1.66 1.66 0 001.667 1.654zm8.334 0c.92 0 1.666-.74 1.666-1.654a1.66 1.66 0 00-1.666-1.654c-.92 0-1.667.74-1.667 1.654a1.66 1.66 0 001.667 1.654z"/></g><defs><clipPath id="kclip0"><path d="M0 0h20v19.844H0z"/></clipPath></defs></symbol><symbol viewBox="0 0 16 16" id="viber" xmlns="http://www.w3.org/2000/svg"><path d="M8 1.335c-1.071.013-3.374.19-4.662 1.37-.958.948-1.292 2.35-1.331 4.084-.033 1.728-.072 4.973 3.058 5.856v1.346s-.02.538.337.648c.438.14.688-.275 1.105-.72l.778-.879c2.142.178 3.782-.232 3.97-.293.435-.139 2.883-.451 3.283-3.696.41-3.351-.2-5.463-1.301-6.418h-.007c-.332-.306-1.668-1.279-4.652-1.29 0 0-.222-.014-.578-.008zm.037.942a7.02 7.02 0 01.488.011c2.527.007 3.732.767 4.017 1.023.927.794 1.405 2.697 1.055 5.495-.332 2.713-2.317 2.885-2.685 3.002-.156.05-1.6.406-3.42.289 0 0-1.356 1.634-1.78 2.055-.067.074-.146.095-.196.085-.071-.018-.093-.107-.089-.229l.013-2.233c-2.655-.733-2.498-3.5-2.47-4.946.033-1.446.304-2.628 1.113-3.43 1.088-.982 3.043-1.115 3.953-1.122zm.2 1.446a.166.166 0 100 .332 3.136 3.136 0 012.242.883c.606.588.9 1.378.912 2.411 0 .092.074.167.167.167V7.51a.167.167 0 00.168-.165 3.588 3.588 0 00-1.009-2.646c-.66-.645-1.496-.977-2.48-.977zm-2.198.382a.523.523 0 00-.342.067H5.69a2.61 2.61 0 00-.637.523 1.003 1.003 0 00-.256.525.71.71 0 00.026.302l.01.006c.172.504.396.988.67 1.444a8.48 8.48 0 001.29 1.762l.015.022.024.017.015.018.017.015c.532.505 1.127.94 1.769 1.295.734.4 1.18.588 1.447.667v.004c.078.024.15.034.221.034.228-.016.444-.109.613-.262a2.53 2.53 0 00.517-.638v-.004c.128-.241.085-.469-.1-.623-.37-.323-.77-.61-1.195-.857-.285-.155-.574-.061-.69.095l-.25.315c-.129.156-.361.134-.361.134l-.007.004C7.093 8.527 6.63 6.772 6.63 6.772s-.022-.239.139-.36l.312-.252c.15-.122.254-.41.094-.695a7.498 7.498 0 00-.856-1.194.475.475 0 00-.28-.167zm2.486.495c-.221 0-.221.334.003.334A2.098 2.098 0 0110 5.572 1.94 1.94 0 0110.5 7a.168.168 0 00.167.165l.007.009a.169.169 0 00.167-.167c.015-.662-.191-1.218-.595-1.663C9.84 4.9 9.273 4.65 8.549 4.6h-.024zm.274.898c-.228-.006-.236.335-.01.341.55.029.816.306.851.877a.166.166 0 00.165.163h.007a.168.168 0 00.16-.178c-.039-.744-.445-1.164-1.166-1.202H8.8z"/></symbol><symbol viewBox="0 0 24 24" id="vk" xmlns="http://www.w3.org/2000/svg"><path d="M21.579 6.855c.14-.465 0-.806-.662-.806h-2.193c-.558 0-.813.295-.953.619 0 0-1.115 2.719-2.695 4.482-.51.513-.743.675-1.021.675-.139 0-.341-.162-.341-.627V6.855c0-.558-.161-.806-.626-.806H9.642c-.348 0-.558.258-.558.504 0 .528.79.65.871 2.138v3.228c0 .707-.127.836-.407.836-.743 0-2.551-2.73-3.624-5.853-.209-.607-.42-.852-.98-.852H2.752c-.627 0-.752.295-.752.619 0 .582.743 3.462 3.461 7.27 1.812 2.602 4.363 4.012 6.687 4.012 1.393 0 1.565-.313 1.565-.853v-1.966c0-.626.133-.752.574-.752.324 0 .882.164 2.183 1.417 1.486 1.486 1.732 2.153 2.567 2.153h2.192c.626 0 .939-.313.759-.931-.197-.615-.907-1.51-1.849-2.57-.512-.603-1.277-1.253-1.51-1.578-.325-.42-.231-.604 0-.976.001 0 2.672-3.761 2.95-5.04z"/></symbol><symbol viewBox="0 0 16 16" id="whatsapp" xmlns="http://www.w3.org/2000/svg"><path fill-rule="evenodd" clip-rule="evenodd" d="M12.269 3.755A5.947 5.947 0 008.035 2 5.994 5.994 0 002.05 7.985a5.98 5.98 0 00.799 2.992L2 14.077l3.173-.832c.877.477 1.86.728 2.86.728h.002a5.993 5.993 0 005.533-8.276 5.953 5.953 0 00-1.3-1.942zm-4.234 9.208h-.002c-.89 0-1.765-.24-2.532-.694l-.181-.108-1.883.494.502-1.835-.118-.188a4.965 4.965 0 01-.76-2.647 4.982 4.982 0 016.88-4.597c.604.25 1.152.618 1.613 1.081a4.946 4.946 0 011.455 3.52 4.982 4.982 0 01-4.974 4.974zm2.729-3.726c-.15-.075-.885-.436-1.022-.486-.137-.05-.236-.075-.336.074-.1.15-.387.486-.474.586-.087.1-.175.112-.324.038-.15-.075-.631-.233-1.203-.742a4.505 4.505 0 01-.832-1.036c-.087-.15-.009-.231.066-.306.068-.066.15-.174.224-.262.075-.087.1-.149.15-.249.05-.1.025-.187-.013-.262-.037-.075-.337-.811-.461-1.11-.121-.29-.244-.252-.336-.256a6.418 6.418 0 00-.286-.005.55.55 0 00-.4.186c-.137.15-.523.512-.523 1.248s.536 1.447.61 1.547c.075.1 1.055 1.61 2.555 2.258.358.154.636.246.853.315.358.114.684.098.942.06.287-.043.885-.362 1.01-.711.124-.35.124-.649.087-.711-.038-.063-.138-.101-.287-.176z"/></symbol></svg>